<?xml version="1.0" standalone="no"?><!DOCTYPE svg PUBLIC "-//W3C//DTD SVG 1.1//EN" "http://www.w3.org/Graphics/SVG/1.1/DTD/svg11.dtd"><svg t="1669451765345" class="icon" viewBox="0 0 1024 1024" version="1.1" xmlns="http://www.w3.org/2000/svg" p-id="2765" xmlns:xlink="http://www.w3.org/1999/xlink" width="200" height="200"><path d="M300.032 771.559619a412.525714 412.525714 0 0 1-185.490286-155.794286l81.773715-53.150476a315.587048 315.587048 0 0 0 110.787047 103.960381v-0.097524a318.610286 318.610286 0 0 0 163.303619 40.423619 318.610286 318.610286 0 0 0 164.327619-51.053714c21.406476-13.848381 40.521143-29.891048 57.344-47.591619a317.781333 317.781333 0 0 0 66.755048-329.923048 318.122667 318.122667 0 0 0-30.866286-60.952381h0.097524a314.709333 314.709333 0 0 0-59.684571-68.266666 349.42781 349.42781 0 0 1-2.876953-1.999238h-46.518857a48.761905 48.761905 0 0 1 0-97.52381h243.809524a48.761905 48.761905 0 1 1 0 97.52381h-64.707048c13.994667 19.358476 26.185143 39.789714 36.571429 61.049904 26.721524 54.613333 40.423619 112.932571 41.886476 171.008a411.843048 411.843048 0 0 1-32.914286 172.958477 412.330667 412.330667 0 0 1-80.798476 123.270095 412.330667 412.330667 0 0 1-118.832762 87.137524 411.648 411.648 0 0 1-122.538666 37.790476v78.214095h146.285714v97.52381h-390.095238v-97.52381h146.285714v-75.678476a411.648 411.648 0 0 1-123.904-31.305143z m148.821333-144.871619a243.809524 243.809524 0 1 1 0-487.619048 243.809524 243.809524 0 0 1 0 487.619048z" p-id="2766" fill="#358FF2"></path></svg>