<?xml version="1.0" standalone="no"?><!DOCTYPE svg PUBLIC "-//W3C//DTD SVG 1.1//EN" "http://www.w3.org/Graphics/SVG/1.1/DTD/svg11.dtd"><svg t="1669457678380" class="icon" viewBox="0 0 1024 1024" version="1.1" xmlns="http://www.w3.org/2000/svg" p-id="1989" xmlns:xlink="http://www.w3.org/1999/xlink" width="200" height="200"><path d="M511 898a38.13 38.13 0 0 0-4-1c-16.56-2.15-33.41-3-49.61-6.69-20.09-4.57-40.15-10.18-59.26-17.76-18.59-7.36-36.53-16.82-53.71-27.1A321.25 321.25 0 0 1 299 813c-15.19-13.19-28.67-28.39-42.52-43.07s-24.83-31.68-34.94-49.07c-10.91-18.77-21-38.15-27.39-59-6-19.4-11.34-39-15.88-58.85-2.34-10.16-2.67-20.85-3.21-31.33-0.65-12.57 9.16-23.06 22-24.68s24.07 5.61 27.9 16.52c1.65 4.7 2.08 9.84 2.92 14.8 1.09 6.44 1.87 12.93 3.1 19.35s2.82 12.67 4.24 19c4.32-0.23 8.38-0.41 12.44-0.68 21.46-1.4 40.43 5.7 57.45 18 9.72 7 18.35 15.46 27.51 23.23 6 5.09 11.92 10.36 18.29 15 1.76 1.27 5.46 1.43 7.52 0.47 13.36-6.23 27.07-11.39 41.68-13.49 21.6-3.09 42.37 0.16 62.5 8.71a132.83 132.83 0 0 1 43.34 30c15.35 15.77 28.88 33.05 35.25 54.79a96.51 96.51 0 0 1-0.19 56.79c-3.84 12.34-9.24 24.2-14.07 36.62 50.65 0.15 99.26-10.84 145.76-34.92-2.65-2.21-5-3.93-7-5.91-16.18-15.5-24.57-34.22-24.84-56.89-0.25-20.85 5.51-40 13.92-58.68 11.71-26 28.08-49 45.47-71.33 5-6.42 5.38-8.91-0.78-14.11q-18.39-15.55-37.6-30.11c-15-11.42-29.77-23.08-42.35-37.14-17.42-19.45-29.9-41.72-34.26-67.71a142.15 142.15 0 0 1-0.42-42.66c1.85-13.64 4.51-27 9.13-40 8.2-23 21-43.07 39.32-59.22 21-18.52 45.87-29.64 72.85-36.37a37.11 37.11 0 0 0 3.76-1.48c-10.18-6.34-19.41-12.42-28.95-18A256.3 256.3 0 0 0 617.51 245c-15.56-4.1-31.52-6.7-47.29-10-9.24-1.94-16.4-6.89-20-15.74-3.94-9.65-2.78-19 4.14-27 7.52-8.76 17-10 28.16-8.44A356.4 356.4 0 0 1 649.88 200c35.71 12.45 69 29.58 98.59 53.23A512.64 512.64 0 0 1 791 290.86c19.53 19.53 35.71 41.85 49.79 65.64a350.3 350.3 0 0 1 34.26 77.72c5.4 18 10 36.15 11.89 54.87 1.19 11.78 2 23.59 3.06 35.39a9.74 9.74 0 0 0 1 2.52v25a9.66 9.66 0 0 0-1 2.53c-1 11.78-1.23 23.71-3.21 35.34a521.64 521.64 0 0 1-11 51.53c-8 28.85-20.41 55.93-35.78 81.68a338.55 338.55 0 0 1-49.46 64.63c-10.53 10.69-21.9 20.59-33.28 30.39-18.4 15.84-38.94 28.61-60.38 39.86a339.77 339.77 0 0 1-84.13 30.91c-19.3 4.31-38.76 7.89-58.76 8.13a11.38 11.38 0 0 0-3 1z m326.9-360.4c1.28-18.45-1.35-38.1-5.12-57.49A299.16 299.16 0 0 0 807 404c-10.93-22-24.51-42.37-39.87-61.59-4.4-5.5-9.46-7.57-16.11-6.4-11.08 2-22.25 3.55-33.2 6.08-19.37 4.49-37.08 12.86-51.66 26.5-12.52 11.72-20.67 26.31-25.26 43-4 14.47-6.14 29.14-4.62 43.93 2 19.24 11.09 35.7 24.95 48.76 13.12 12.35 27.43 23.49 41.7 34.55 14.44 11.19 29.63 21.55 40.73 36.35 14.15 18.86 17.43 39.64 6.5 60.81-6.31 12.22-15.2 23.14-23.17 34.47-14.9 21.19-28.65 43-33.52 68.93-1.51 8.1-1 16.32 4.77 23.37 5.31 6.45 12.58 9.41 19.78 12.88 4.19 2 7.17 1.05 10.25-1.46a78.31 78.31 0 0 0 7.73-6.78c12.32-13.16 25-26 36.66-39.77 19.12-22.46 33.36-48.09 44.06-75.42 14.22-36.27 22.52-73.88 21.18-114.61zM253.64 668c0.87 1.86 1.39 3 2 4.2 12 24.32 26.38 47 44.37 67.38 16.54 18.76 34.64 35.74 55.14 50.15a299.81 299.81 0 0 0 70.43 37c12.36 4.48 25.19 7.66 37.87 11.24 1.34 0.38 3.74 0 4.46-0.91 8-10.33 15.4-21 20.27-33.32 5.85-14.79 8.1-29.66-0.34-44-11.77-19.93-27.31-36.37-49.19-45.14a62.31 62.31 0 0 0-23.94-4.24c-12 0.27-23.13 4.65-33.89 10.2-16.79 8.66-33.94 8-50.8-0.08-12.74-6.12-23-15.56-33.28-25.09-7.69-7.13-15.84-13.84-24.21-20.17a35.67 35.67 0 0 0-18.89-7.22z" p-id="1990" fill="#ffffff"></path><path d="M135 301c1.33-7 2.62-13.93 4-20.88 3.82-19.21 11.18-37.13 20.65-54.16a168.94 168.94 0 0 1 37.74-46.56 296.79 296.79 0 0 1 34-24.91c16.36-10.38 34.54-16.83 53.48-20.8a212.26 212.26 0 0 1 24.73-3.59 182.66 182.66 0 0 1 93.68 14.46c15.59 6.65 30.29 14.95 43.08 25.83 11.4 9.68 21.53 20.94 31.67 32 10.6 11.55 17.92 25.35 24.38 39.51 7.13 15.62 12.84 31.83 14.49 49 1.42 14.62 2.46 29.41 1.88 44.06-0.59 14.83-5 29.18-10.27 43.12A275.43 275.43 0 0 1 475 440.46C464 456 452.51 471.43 440.19 486c-13.74 16.28-28.43 31.77-43.09 47.24q-17.27 18.21-35.52 35.46c-7.49 7.09-15.25 14.18-23.92 19.65-8.17 5.15-20.14 3.11-27.36-3.63-12.12-11.31-24.23-22.62-36.12-34.16-11.29-11-22.94-21.63-33.26-33.46-17.81-20.39-35-41.32-51.88-62.5A291.16 291.16 0 0 1 154 397.58c-8.8-18.63-16.1-37.79-18.09-58.55 0-0.37-0.58-0.69-0.88-1z m191.19 227.68c2.62-1.88 4.3-2.92 5.78-4.19s2.84-2.81 4.26-4.22c21.86-21.74 43.92-43.31 63.29-67.37 10.05-12.48 20-25.06 29.41-38.06 11.69-16.19 22-33.37 28.91-52.12 4.09-11.06 7.48-22.72 8.77-34.38 1.17-10.49-0.18-21.46-1.79-32-2.68-17.58-9.47-33.82-18.9-48.91A139.66 139.66 0 0 0 401 202.55a138 138 0 0 0-68.94-21.32 135.54 135.54 0 0 0-31.34 2.89c-44.71 8.9-77.59 34-98.72 74.33a128.78 128.78 0 0 0-14.16 47c-1.33 12.76-1.31 25.3 1.8 37.74 5.58 22.29 16.16 42.31 28.54 61.4 21.37 33 47.07 62.42 74.44 90.47 11.01 11.3 22.28 22.34 33.57 33.62z" p-id="1991" fill="#ffffff"></path><path d="M391 321.49c1.92 34.58-28.93 65.92-66 64.54-33.54-1.24-62.11-26.75-62.51-64.33-0.38-34.87 27.33-66.29 68-64.69 31.94 1.24 61.97 28.7 60.51 64.48z" p-id="1992" fill="#ffffff"></path></svg>